<?xml version="1.0" encoding="UTF-8" standalone="no"?>
<svg width="345px" height="345px" viewBox="0 0 345 345" version="1.1" xmlns="http://www.w3.org/2000/svg" xmlns:xlink="http://www.w3.org/1999/xlink" xmlns:sketch="http://www.bohemiancoding.com/sketch/ns">
    <!-- Generator: Sketch 3.3.1 (12002) - http://www.bohemiancoding.com/sketch -->
    <title>LOGO</title>
    <desc>Created with Sketch.</desc>
    <defs></defs>
    <g id="Elements" stroke="none" stroke-width="1" fill="none" fill-rule="evenodd" sketch:type="MSPage">
        <g id="LOGO" sketch:type="MSLayerGroup">
            <rect id="Rectangle-156" fill="#3F51B5" sketch:type="MSShapeGroup" x="0" y="0" width="345" height="345"></rect>
            <g id="Oval-62-+-M-+-SPORTS" transform="translate(12.000000, 13.000000)">
                <path d="M160,320 C226.901482,320 293.802964,269.902809 313.917226,201.818099 C317.85536,188.487919 320,174.468223 320,160 C320,71.63444 248.36556,0 160,0 C71.63444,0 0,71.63444 0,160 C0,248.36556 80,320 160,320 Z" id="Oval-62" fill="#E91E63" sketch:type="MSShapeGroup"></path>
                <g id="M-+-SPORTS" transform="translate(7.000000, 15.000000)">
                    <path d="M60.1537421,117.189415 C60.1537421,117.189415 110.302597,148.911143 156.630274,147.091268 C157.703464,147.04911 141.599818,153.017835 141.599818,147.091268 C141.599818,134.800724 133.47264,76.5127522 133.310854,49.2526946 C133.281894,44.3729742 135.396739,45.926063 135.823138,43.0520916 C137.366807,32.6475896 209.089907,89.7024008 249.72877,125.488466 C253.335237,128.664276 248.964084,131.477822 252.150538,134.323118 C257.45824,139.062551 254.218919,130.369145 258.258677,134.32312 C267.356355,143.227613 257.682972,156.920961 259.458155,157.169366 C276.026379,159.487793 274.945994,151.163717 274.945994,151.163717 L260.942128,266.09974 C260.942128,266.09974 248.985805,275.590844 230.947977,283.529885 C225.271499,286.02829 212.657067,291.795171 200.284922,294.678282 C187.72003,297.606308 175.376077,299.624342 166.997835,299.624342 C160.341766,299.624342 156.893618,299.472926 154.811302,299.351927 C151.691648,299.17065 151.6376,299.057644 148.45489,299.624342 C144.643974,300.302895 142.628224,299.624981 141.599818,299.624342 C139.168018,299.62283 141.406503,299.032049 132.366221,297.631498 C129.821004,297.237184 121.753926,296.376746 121.071146,296.124952 C119.067018,295.385875 113.179356,293.190042 108.974612,292.124326 C107.371314,291.717962 103.836717,290.344663 102.351794,289.925611 C74.100096,281.952864 69.0957235,272.59683 69.0957235,272.59683 L60.1537421,117.189415 Z" id="Rectangle-157" fill-opacity="0.520380435" fill="#D0011B" sketch:type="MSShapeGroup" transform="translate(167.557058, 170.865233) scale(-1, 1) rotate(45.000000) translate(-167.557058, -170.865233) "></path>
                    <text id="M" stroke="#FFFFFF" stroke-width="2" sketch:type="MSTextLayer" font-family="Antipasto" font-size="212" font-weight="260" fill="#FFFFFF">
                        <tspan x="70" y="197">M</tspan>
                    </text>
                    <text id="SPORTS" sketch:type="MSTextLayer" font-family="Roboto" font-size="44" font-weight="bold" fill="#FFFFFF">
                        <tspan x="71" y="235.84252">SPORTS</tspan>
                    </text>
                </g>
            </g>
        </g>
    </g>
</svg>